<?xml version="1.0" encoding="utf-8"?>
<!-- Generator: Adobe Illustrator 16.0.0, SVG Export Plug-In . SVG Version: 6.00 Build 0)  -->
<!DOCTYPE svg PUBLIC "-//W3C//DTD SVG 1.1//EN" "http://www.w3.org/Graphics/SVG/1.1/DTD/svg11.dtd">
<svg version="1.1" id="Layer_1" xmlns="http://www.w3.org/2000/svg" xmlns:xlink="http://www.w3.org/1999/xlink" x="0px" y="0px"
	 width="500.878px" height="807.568px" viewBox="0 0 500.878 807.568" enable-background="new 0 0 500.878 807.568"
	 xml:space="preserve">
<g>
	<path d="M90.037,295.024L51.137,166.087c-1.311-4.371-10.49-33.654-18.794-73.428c1.311,33.218,3.497,90.037,3.497,108.394v93.971
		H0V3.497h36.714l37.151,131.122c10.053,35.403,13.549,48.515,20.105,76.488c-2.185-34.529-3.934-72.117-3.934-104.023V3.497h35.403
		v291.527H90.037z"/>
	<path d="M215.476,0c46.33,0,66.435,36.714,66.435,149.479c0,112.765-20.105,149.042-66.435,149.042
		c-59.005,0-65.998-63.376-65.998-149.042C149.478,66.872,155.16,0,215.476,0z M199.741,244.76
		c1.748,8.305,4.808,17.483,15.734,17.483s13.986-8.741,15.735-17.483c3.934-19.668,3.934-82.606,3.934-87.852
		c0-41.521-0.437-59.879-2.186-90.911c-0.874-21.417-6.119-29.721-17.483-29.721c-10.927,0-13.986,8.304-15.734,17.483
		c-3.497,18.357-3.497,93.971-3.497,95.719C196.245,172.207,196.245,225.092,199.741,244.76z"/>
	<path d="M410.841,295.024L390.735,143.36c-2.186-16.172-4.371-42.396-6.119-62.064c-0.438,11.364-2.622,41.959-4.808,60.753
		l-18.357,152.976h-34.966L288.897,3.497h39.773l13.549,137.241c1.312,10.927,3.935,59.005,4.809,68.621
		c0.874-25.351,2.622-51.575,4.808-67.747l14.86-138.115h36.277l18.356,138.552c1.748,13.549,4.808,56.382,6.119,70.369
		c0-7.431,0-9.616,0.438-28.41c1.311-31.469,1.748-32.78,2.186-41.959L440.999,3.497h37.15l-33.654,291.527H410.841z"/>
</g>
<g>
	<path d="M90.037,807.568L51.137,678.631c-1.311-4.371-10.49-33.654-18.794-73.428c1.311,33.217,3.497,90.036,3.497,108.394v93.971
		H0V516.041h36.714l37.151,131.122c10.053,35.402,13.549,48.515,20.105,76.487c-2.185-34.528-3.934-72.117-3.934-104.023V516.041
		h35.403v291.527H90.037z"/>
	<path d="M155.159,807.568V516.041h99.216v37.151h-55.508v83.044h40.21v37.15h-40.21v97.03h59.442v37.151H155.159z"/>
	<path d="M350.091,807.568l-22.291-101.4l-23.602,101.4h-39.773l43.707-150.354l-38.899-141.174h42.396l18.794,90.911l19.669-90.911
		h39.336l-39.336,136.366l43.27,155.161H350.091z"/>
	<path d="M425.264,807.568V553.192h-32.343v-37.151h107.957v37.151h-31.906v254.376H425.264z"/>
</g>
<g>
	<rect x="91.089" y="384.176" width="277.168" height="32.857"/>
</g>
<g>
	<polygon points="243.425,306.798 243.425,343.971 342.261,400.386 243.425,457.239 243.425,494.412 373.748,416.568 
		373.748,384.642 	"/>
</g>
</svg>
