<?xml version="1.0" encoding="utf-8"?>
<!-- Generator: Adobe Illustrator 16.0.0, SVG Export Plug-In . SVG Version: 6.00 Build 0)  -->
<!DOCTYPE svg PUBLIC "-//W3C//DTD SVG 1.1//EN" "http://www.w3.org/Graphics/SVG/1.1/DTD/svg11.dtd">
<svg version="1.1" id="Layer_1" xmlns="http://www.w3.org/2000/svg" xmlns:xlink="http://www.w3.org/1999/xlink" x="0px" y="0px"
	 width="1440px" height="730.001px" viewBox="0 0 1440 730.001" enable-background="new 0 0 1440 730.001" xml:space="preserve">
<rect y="0.002" fill="#8299FF" width="1440" height="729.999"/>
<g>
	<defs>
		<rect id="SVGID_1_" y="0.002" width="1440" height="729.999"/>
	</defs>
	<clipPath id="SVGID_2_">
		<use xlink:href="#SVGID_1_"  overflow="visible"/>
	</clipPath>
	<g clip-path="url(#SVGID_2_)">
		
			<text transform="matrix(1 0 0 1 -42.4536 442.1304)" fill="#3658BE" font-family="'ITCFranklinGothicStd-DmXCp'" font-size="665.0744">N</text>
	</g>
	<g clip-path="url(#SVGID_2_)">
		<text transform="matrix(1 0 0 1 180.3467 442.1304)"><tspan x="0" y="0" fill="#3658BE" font-family="'ITCFranklinGothicStd-DmXCp'" font-size="665.0744" letter-spacing="-24">O</tspan><tspan x="213.48" y="0" fill="#3658BE" font-family="'ITCFranklinGothicStd-DmXCp'" font-size="665.0744">W</tspan></text>
	</g>
</g>
<rect x="699.574" y="121.584" fill="#3658BE" width="740.426" height="42.72"/>
<polygon fill="#3658BE" points="1294.253,69.309 1422.759,142.66 1294.253,216.58 1294.253,264.912 1440,177.854 1440,108.034 
	1294.253,20.977 "/>
<rect y="566.947" fill="#3658BE" width="673.8" height="45.715"/>
<polygon fill="#3658BE" points="500.113,459.284 500.113,511.005 637.63,589.499 500.113,668.603 500.113,720.322 681.44,612.013 
	681.44,567.594 "/>
<g>
	<defs>
		<rect id="SVGID_3_" y="0.002" width="1440" height="729.999"/>
	</defs>
	<clipPath id="SVGID_4_">
		<use xlink:href="#SVGID_3_"  overflow="visible"/>
	</clipPath>
	<g clip-path="url(#SVGID_4_)">
		
			<text transform="matrix(1 0 0 1 685.7935 730.3418)" fill="#3658BE" font-family="'ITCFranklinGothicStd-DmXCp'" font-size="665.0421">N</text>
	</g>
	<g clip-path="url(#SVGID_4_)">
		
			<text transform="matrix(1 0 0 1 898.6074 730.3418)" fill="#3658BE" font-family="'ITCFranklinGothicStd-DmXCp'" font-size="665.0421">E</text>
	</g>
	<g clip-path="url(#SVGID_4_)">
		
			<text transform="matrix(1 0 0 1 1098.7852 730.3418)" fill="#3658BE" font-family="'ITCFranklinGothicStd-DmXCp'" font-size="665.0421">X</text>
	</g>
	<g clip-path="url(#SVGID_4_)">
		
			<text transform="matrix(1 0 0 1 1310.2676 730.3418)" fill="#3658BE" font-family="'ITCFranklinGothicStd-DmXCp'" font-size="665.0421">T</text>
	</g>
</g>
</svg>
