<?xml version="1.0" encoding="utf-8"?>
<!-- Generator: Adobe Illustrator 16.0.0, SVG Export Plug-In . SVG Version: 6.00 Build 0)  -->
<!DOCTYPE svg PUBLIC "-//W3C//DTD SVG 1.1//EN" "http://www.w3.org/Graphics/SVG/1.1/DTD/svg11.dtd">
<svg version="1.1" xmlns="http://www.w3.org/2000/svg" xmlns:xlink="http://www.w3.org/1999/xlink" x="0px" y="0px"
	 width="661.94px" height="1128.706px" viewBox="0 0 661.94 1128.706" enable-background="new 0 0 661.94 1128.706"
	 xml:space="preserve">
<polygon fill="#3D44AC" points="403.968,518.501 349.327,614.23 349.327,430.426 304.672,430.426 304.672,613.494 250.031,518.501 
	199.51,518.501 305.305,695.619 348.694,695.619 454.489,518.501 "/>
<g>
	<path fill="#3D44AC" d="M619.039,1128.706V778.698h43.901V727.58H514.397v51.118H558.9v350.008H619.039z M514.701,1128.706
		l-59.537-213.493l54.125-187.633h-54.125l-27.062,125.089L402.242,727.58h-58.335l53.524,194.249l-60.14,206.877h54.727
		l32.475-139.521l30.671,139.521H514.701z M331.882,1128.706v-51.118h-81.787V944.08h55.326v-51.118h-55.326V778.698h76.376V727.58
		H189.956v401.126H331.882z M173.598,1128.706V727.58h-48.712v142.529c0,43.902,2.405,95.621,5.412,143.131
		c-9.021-38.489-13.832-56.531-27.664-105.243L51.516,727.58H1v401.126h49.313V999.408c0-25.259-3.006-103.438-4.811-149.145
		c11.427,54.727,24.056,95.02,25.86,101.033l53.524,177.409H173.598z"/>
</g>
<path fill="#3D44AC" d="M582.353,401.126L628.66,0h-51.118l-15.035,190.64c-0.601,12.629-1.201,14.434-3.007,57.733
	c-0.601,25.86-0.601,28.867-0.601,39.091c-1.804-19.245-6.015-78.181-8.419-96.824L525.221,0h-49.915l-20.447,190.039
	c-3.007,22.251-5.413,58.334-6.615,93.215c-1.203-13.231-4.811-79.383-6.616-94.418L422.985,0h-54.726l51.719,401.126h48.111
	l25.259-210.486c3.007-25.859,6.014-67.957,6.614-83.593c2.406,27.063,5.413,63.146,8.419,85.397l27.664,208.682H582.353z
	 M253.583,200.864c0-2.406,0-106.446,4.811-131.704c2.404-12.629,6.615-24.056,21.65-24.056c15.635,0,22.852,11.427,24.055,40.895
	c2.406,42.698,3.007,67.957,3.007,125.088c0,7.217,0,93.817-5.412,120.879c-2.406,12.028-6.616,24.056-21.649,24.056
	c-15.035,0-19.246-12.629-21.65-24.056C253.583,304.904,253.583,232.136,253.583,200.864 M189.234,200.864
	c0,117.872,9.622,205.073,90.811,205.073c63.746,0,91.41-49.915,91.41-205.073S343.791-4.811,280.044-4.811
	C197.052-4.811,189.234,87.202,189.234,200.864 M173.598,401.126V0h-48.712v142.529c0,43.902,2.405,95.621,5.412,143.131
	c-9.021-38.489-13.832-56.531-27.664-105.243L51.516,0H1v401.126h49.313V271.828c0-25.259-3.006-103.439-4.811-149.145
	c11.427,54.727,24.056,95.02,25.86,101.034l53.524,177.409H173.598z"/>
</svg>
