<?xml version="1.0" encoding="utf-8"?>
<!-- Generator: Adobe Illustrator 16.0.0, SVG Export Plug-In . SVG Version: 6.00 Build 0)  -->
<!DOCTYPE svg PUBLIC "-//W3C//DTD SVG 1.1//EN" "http://www.w3.org/Graphics/SVG/1.1/DTD/svg11.dtd">
<svg version="1.1" id="NEXT" xmlns="http://www.w3.org/2000/svg" xmlns:xlink="http://www.w3.org/1999/xlink" x="0px" y="0px"
	 width="751.261px" height="449.616px" viewBox="0 0 751.261 449.616" enable-background="new 0 0 751.261 449.616"
	 xml:space="preserve">
<path d="M702.053,449.616V57.298h49.208V0H584.762v57.298h49.883v392.317H702.053z M583.754,449.616L517.02,210.315L577.688,0
	H517.02l-30.334,140.21L457.7,0h-65.386l59.993,217.73l-67.409,231.886h61.343l36.399-156.388l34.379,156.388H583.754z
	 M378.972,449.616v-57.297h-91.676V242.672h62.017v-57.299h-62.017V57.298h85.608V0H219.887v449.616H378.972z M193.463,449.616V0
	h-54.601v159.759c0,49.208,2.696,107.18,6.067,160.432c-10.112-43.141-15.504-63.364-31.008-117.965L56.623,0H0v449.616h55.275
	V304.687c0-28.312-3.37-115.942-5.392-167.173C62.69,198.856,76.846,244.02,78.868,250.761l59.994,198.854H193.463z"/>
</svg>
