<?xml version="1.0" encoding="utf-8"?>
<!-- Generator: Adobe Illustrator 16.0.0, SVG Export Plug-In . SVG Version: 6.00 Build 0)  -->
<!DOCTYPE svg PUBLIC "-//W3C//DTD SVG 1.1//EN" "http://www.w3.org/Graphics/SVG/1.1/DTD/svg11.dtd">
<svg version="1.1" id="Layer_1" xmlns="http://www.w3.org/2000/svg" xmlns:xlink="http://www.w3.org/1999/xlink" x="0px" y="0px"
	 width="500.878px" height="291.527px" viewBox="0 0 500.878 291.527" enable-background="new 0 0 500.878 291.527"
	 xml:space="preserve">
<g>
	<path d="M90.037,291.527L51.137,162.591c-1.311-4.371-10.49-33.654-18.794-73.428c1.311,33.217,3.497,90.036,3.497,108.394v93.971
		H0V0h36.714l37.151,131.122c10.053,35.402,13.549,48.515,20.105,76.487c-2.185-34.528-3.934-72.117-3.934-104.023V0h35.403v291.527
		H90.037z"/>
	<path d="M155.159,291.527V0h99.216v37.151h-55.508v83.044h40.21v37.15h-40.21v97.03h59.442v37.151H155.159z"/>
	<path d="M350.091,291.527l-22.291-101.4l-23.602,101.4h-39.773l43.707-150.354L269.232,0h42.396l18.794,90.911L350.091,0h39.336
		l-39.336,136.366l43.27,155.161H350.091z"/>
	<path d="M425.264,291.527V37.151h-32.343V0h107.957v37.151h-31.906v254.376H425.264z"/>
</g>
</svg>
