<?xml version="1.0" encoding="utf-8"?>
<!-- Generator: Adobe Illustrator 16.0.0, SVG Export Plug-In . SVG Version: 6.00 Build 0)  -->
<!DOCTYPE svg PUBLIC "-//W3C//DTD SVG 1.1//EN" "http://www.w3.org/Graphics/SVG/1.1/DTD/svg11.dtd">
<svg version="1.1" id="NOW" xmlns="http://www.w3.org/2000/svg" xmlns:xlink="http://www.w3.org/1999/xlink" x="0px" y="0px"
	 width="716.992px" height="460.342px" viewBox="0 0 716.992 460.342" enable-background="new 0 0 716.992 460.342"
	 xml:space="preserve">
<path d="M665.094,454.95L716.992,5.392h-57.29L642.852,219.05c-0.674,14.154-1.348,16.176-3.369,64.704
	c-0.675,28.981-0.675,32.352-0.675,43.81c-2.021-21.567-6.739-87.62-9.436-108.514L601.064,5.392h-55.942l-22.916,212.984
	c-3.37,24.938-6.066,65.378-7.414,104.47c-1.348-14.828-5.392-88.968-7.414-105.818L486.484,5.392H425.15l57.964,449.559h53.92
	l28.308-235.9c3.37-28.982,6.74-76.162,7.414-93.686c2.696,30.33,6.066,70.77,9.437,95.708l31.004,233.878H665.094z
	 M289.887,230.508c0-2.696,0-119.298,5.392-147.606c2.696-14.154,7.414-26.96,24.264-26.96c17.524,0,25.612,12.806,26.96,45.832
	c2.696,47.854,3.37,76.162,3.37,140.192c0,8.088,0,105.144-6.066,135.474c-2.696,13.48-7.414,26.96-24.264,26.96
	s-21.568-14.153-24.264-26.96C289.887,347.109,289.887,265.556,289.887,230.508 M217.769,230.508
	c0,132.104,10.784,229.834,101.774,229.834c71.443,0,102.448-55.942,102.448-229.834C421.991,56.616,390.986,0,319.543,0
	C226.531,0,217.769,103.122,217.769,230.508 M193.438,454.95V5.392h-54.594V165.13c0,49.202,2.696,107.166,6.066,160.412
	c-10.11-43.136-15.502-63.356-31.004-117.95l-57.29-202.2H0V454.95h55.268V310.04c0-28.309-3.37-115.929-5.392-167.152
	c12.806,61.334,26.96,106.492,28.982,113.232l59.986,198.83H193.438z"/>
</svg>
